{"accessors":[{"name":"Male_Skin_1_positions","componentType":5126,"count":7477,"min":[-0.17672300338745117,-0.13436999917030334,0.0904792994260788],"max":[0.17672300338745117,0.06268589943647385,0.42813000082969666],"type":"VEC3","bufferView":0,"byteOffset":0},{"name":"Male_Skin_1_normals","componentType":5126,"count":7477,"min":[-0.999987006187439,-0.9997940063476562,-0.9999679923057556],"max":[0.999987006187439,0.999983012676239,0.9995459914207458],"type":"VEC3","bufferView":0,"byteOffset":201156},{"name":"Male_Skin_1_texcoords","componentType":5126,"count":7477,"min":[0.009802999906241894,0.05480699986219406],"max":[0.9901970028877258,0.9901970028877258],"type":"VEC2","bufferView":1,"byteOffset":0},{"name":"Male_Skin_1_0_indices","componentType":5123,"count":41061,"min":[0],"max":[7476],"type":"SCALAR","bufferView":2,"byteOffset":0},{"name":"Eye_R_1_positions","componentType":5126,"count":328,"min":[-0.03895220160484314,-0.10689300298690796,0.3206599950790405],"max":[-0.014647799544036388,-0.08325830101966858,0.3453400135040283],"type":"VEC3","bufferView":0,"byteOffset":89724},{"name":"Eye_R_1_normals","componentType":5126,"count":328,"min":[-0.9848080277442932,-1,-1],"max":[0.9848080277442932,1,1],"type":"VEC3","bufferView":0,"byteOffset":290880},{"name":"Eye_R_1_texcoords","componentType":5126,"count":328,"min":[0,0],"max":[1,1],"type":"VEC2","bufferView":1,"byteOffset":59816},{"name":"Eye_R_1_0_indices","componentType":5123,"count":1842,"min":[0],"max":[327],"type":"SCALAR","bufferView":2,"byteOffset":82124},{"name":"Eye_L_1_positions","componentType":5126,"count":328,"min":[0.014647799544036388,-0.10689300298690796,0.3206599950790405],"max":[0.03895220160484314,-0.08325830101966858,0.3453400135040283],"type":"VEC3","bufferView":0,"byteOffset":93660},{"name":"Eye_L_1_normals","componentType":5126,"count":328,"min":[-0.9848080277442932,-1,-1],"max":[0.9848080277442932,1,1],"type":"VEC3","bufferView":0,"byteOffset":294816},{"name":"Eye_L_1_texcoords","componentType":5126,"count":328,"min":[0,-0.003819999983534217],"max":[1,1],"type":"VEC2","bufferView":1,"byteOffset":62440},{"name":"Eye_L_1_0_indices","componentType":5123,"count":1842,"min":[0],"max":[327],"type":"SCALAR","bufferView":2,"byteOffset":85808},{"name":"EYE_Cornea_R_1_positions","componentType":5126,"count":73,"min":[-0.031733401119709015,-0.10885799676179886,0.3279910087585449],"max":[-0.02186659909784794,-0.1064009964466095,0.3380100131034851],"type":"VEC3","bufferView":0,"byteOffset":97596},{"name":"EYE_Cornea_R_1_normals","componentType":5126,"count":73,"min":[-0.831180989742279,-1,-0.8363639712333679],"max":[0.8311790227890015,-0.547523021697998,0.836342990398407],"type":"VEC3","bufferView":0,"byteOffset":298752},{"name":"EYE_Cornea_R_1_0_indices","componentType":5123,"count":378,"min":[0],"max":[72],"type":"SCALAR","bufferView":2,"byteOffset":89492},{"name":"EYE_Cornea_L_1_positions","componentType":5126,"count":73,"min":[0.02186659909784794,-0.10885799676179886,0.3279910087585449],"max":[0.031733401119709015,-0.1064009964466095,0.3380100131034851],"type":"VEC3","bufferView":0,"byteOffset":98472},{"name":"EYE_Cornea_L_1_normals","componentType":5126,"count":73,"min":[-0.8311790227890015,-1,-0.8363639712333679],"max":[0.831180989742279,-0.547523021697998,0.836342990398407],"type":"VEC3","bufferView":0,"byteOffset":299628},{"name":"EYE_Cornea_L_1_0_indices","componentType":5123,"count":378,"min":[0],"max":[72],"type":"SCALAR","bufferView":2,"byteOffset":90248},{"name":"Eyelashes_R_1_positions","componentType":5126,"count":4242,"min":[-0.043820399791002274,-0.11395999789237976,0.32745298743247986],"max":[-0.014477300457656384,-0.09948380291461945,0.3378329873085022],"type":"VEC3","bufferView":0,"byteOffset":99348},{"name":"Eyelashes_R_1_normals","componentType":5126,"count":4242,"min":[-0.9993919730186462,-0.9999740123748779,-0.9600189924240112],"max":[0.9996989965438843,0.9997299909591675,0.9973170161247253],"type":"VEC3","bufferView":0,"byteOffset":300504},{"name":"Eyelashes_R_1_0_indices","componentType":5123,"count":9396,"min":[0],"max":[4241],"type":"SCALAR","bufferView":2,"byteOffset":91004},{"name":"Eyelashes_L_1_positions","componentType":5126,"count":4242,"min":[0.014477300457656384,-0.11395999789237976,0.32745298743247986],"max":[0.043820399791002274,-0.09948380291461945,0.3378329873085022],"type":"VEC3","bufferView":0,"byteOffset":150252},{"name":"Eyelashes_L_1_normals","componentType":5126,"count":4242,"min":[-0.9996989965438843,-0.9999740123748779,-0.9600189924240112],"max":[0.9993919730186462,0.9997299909591675,0.9973170161247253],"type":"VEC3","bufferView":0,"byteOffset":351408},{"name":"Eyelashes_L_1_0_indices","componentType":5123,"count":9396,"min":[0],"max":[4241],"type":"SCALAR","bufferView":2,"byteOffset":109796}],"asset":{"generator":"obj2gltf","version":"2.0"},"buffers":[{"name":"input","byteLength":595964,"uri":"data:application/octet-stream;base64,"}],"bufferViews":[{"name":"bufferView_0","buffer":0,"byteLength":402312,"byteOffset":0,"byteStride":12,"target":34962},{"name":"bufferView_1","buffer":0,"byteLength":65064,"byteOffset":402312,"byteStride":8,"target":34962},{"name":"bufferView_2","buffer":0,"byteLength":128588,"byteOffset":467376,"target":34963}],"materials":[{"name":"Male_Skin","pbrMetallicRoughness":{"baseColorFactor":[0.5,0.5,0.5,1],"metallicFactor":0,"roughnessFactor":1},"emissiveFactor":[0,0,0],"alphaMode":"OPAQUE","doubleSided":false},{"name":"EYE","pbrMetallicRoughness":{"baseColorFactor":[0.5,0.5,0.5,1],"metallicFactor":0,"roughnessFactor":1},"emissiveFactor":[0,0,0],"alphaMode":"OPAQUE","doubleSided":false},{"name":"EYE_Cornea","pbrMetallicRoughness":{"baseColorFactor":[0.5,0.5,0.5,1],"metallicFactor":0,"roughnessFactor":1},"emissiveFactor":[0,0,0],"alphaMode":"OPAQUE","doubleSided":false},{"name":"EYE_Eyelashes","pbrMetallicRoughness":{"baseColorFactor":[0.5,0.5,0.5,1],"metallicFactor":0,"roughnessFactor":1},"emissiveFactor":[0,0,0],"alphaMode":"OPAQUE","doubleSided":false}],"meshes":[{"name":"Male_Skin_1","primitives":[{"attributes":{"POSITION":0,"NORMAL":1,"TEXCOORD_0":2},"indices":3,"material":0,"mode":4}]},{"name":"Eye_R_1","primitives":[{"attributes":{"POSITION":4,"NORMAL":5,"TEXCOORD_0":6},"indices":7,"material":1,"mode":4}]},{"name":"Eye_L_1","primitives":[{"attributes":{"POSITION":8,"NORMAL":9,"TEXCOORD_0":10},"indices":11,"material":1,"mode":4}]},{"name":"EYE_Cornea_R_1","primitives":[{"attributes":{"POSITION":12,"NORMAL":13},"indices":14,"material":2,"mode":4}]},{"name":"EYE_Cornea_L_1","primitives":[{"attributes":{"POSITION":15,"NORMAL":16},"indices":17,"material":2,"mode":4}]},{"name":"Eyelashes_R_1","primitives":[{"attributes":{"POSITION":18,"NORMAL":19},"indices":20,"material":3,"mode":4}]},{"name":"Eyelashes_L_1","primitives":[{"attributes":{"POSITION":21,"NORMAL":22},"indices":23,"material":3,"mode":4}]}],"nodes":[{"name":"Male_Skin","mesh":0},{"name":"Eye_R","mesh":1},{"name":"Eye_L","mesh":2},{"name":"EYE_Cornea_R","mesh":3},{"name":"EYE_Cornea_L","mesh":4},{"name":"Eyelashes_R","mesh":5},{"name":"Eyelashes_L","mesh":6}],"scene":0,"scenes":[{"nodes":[0,1,2,3,4,5,6]}]}
